# xmcd
#
# Track frame offsets:
#	150
#	12789
#	32580
#	45091
#	63805
#	82163
#	100990
#	118390
#	129567
#	147158
#	162760
#	180372
#	197152
#	213390
#	230867
#	251338
#	268543
#	285652
#	303825
#
# Disc length: 4378 seconds
#
# Revision: 2
# Processed by: cddbd v1.5.1PL2 Copyright (c) Steve Scherf et al.
# Submitted via: MusicWizard 7.2.0
#
DISCID=03111813
DTITLE=Various Artist - Lovesongs - Slow Music Vol. 3
DYEAR=1985
DGENRE=Blues
TTITLE0=Frank Zappa - Bobby Brown
TTITLE1=10cc - Dreadlock Holiday
TTITLE2=Jj Cale - Cocain
TTITLE3=Culture Club - Do You Really Want To Heart Me
TTITLE4=Diana Ross and Lionel Richie - Endless Love
TTITLE5=Simply Red - For Your Babies
TTITLE6=Toto - Hold The Line
TTITLE7=Dave Edmunds - I Hear You Knocking On Heavens Door
TTITLE8=The Chimes - I Still Haven´t Found What I´m Looking For
TTITLE9=Linda Ronstadt - I Don´t Know Much
TTITLE10=Engelbert - Power Of Love
TTITLE11=Cyndie Lauper - True Colors
TTITLE12=Christopher L. - Ride Like The Wind
TTITLE13=Simply Red - Something Got Me Started
TTITLE14=Arthur Baker - The Message Is Love
TTITLE15=Sydney Youngblood - Sit And Wait
TTITLE16=Natalie Cole - Miss You Like Crazy
TTITLE17=Simply Red - Stars
TTITLE18=Modern Talking - You´re My Heart You´re My Soul
EXTD=
EXTT0=
EXTT1=
EXTT2=
EXTT3=
EXTT4=
EXTT5=
EXTT6=
EXTT7=
EXTT8=
EXTT9=
EXTT10=
EXTT11=
EXTT12=
EXTT13=
EXTT14=
EXTT15=
EXTT16=
EXTT17=
EXTT18=
PLAYORDER=
